<svg xmlns="http://www.w3.org/2000/svg" viewBox="0 0 32 32"><path fill="#888" fill-opacity=".3" d="M28 0H4Q0 0 0 4v24q0 4 4 4h24q4 0 4-4V4q0-4-4-4M11.65 11.7q0-1.55 1.15-2.65 1.2-1.1 3.2-1.1 1.9 0 3.1 1 1.15 1.05 1.15 2.4 0 .9-.6 1.8-.65.95-2.65 2.2 2.05 1.6 2.75 2.5.85 1.2.85 2.55 0 1.65-1.25 2.85-1.3 1.2-3.35 1.2-2.25 0-3.55-1.45-1-1.1-1-2.45 0-1.1.7-2.1.7-1.05 2.45-2.3-1.9-1.55-2.4-2.5-.55-.95-.55-1.95m3.5 4.9q-.95.8-1.45 1.8-.45.95-.45 2.05 0 1.55.85 2.45.8.9 2.1.9 1.25 0 2-.7.75-.75.75-1.75 0-.85-.45-1.5-.8-1.25-3.35-3.25m3.45-5.35q0-1.25-.7-1.95T16 8.6q-1.15 0-1.9.7t-.75 1.6q0 .65.3 1.25t.85 1.15l1.95 1.6q1.4-1.25 1.8-2 .35-.75.35-1.65z"/></svg>