<svg version="1.1" xmlns="http://www.w3.org/2000/svg" xmlns:xlink="http://www.w3.org/1999/xlink" x="0px" y="0px" preserveAspectRatio="xMidYMid meet" viewBox="0 0 32 32">
<path fill="#888888" fill-opacity="0.3" stroke="none" d="M 28 0 L 4 0 Q 0 0 0 4 L 0 28 Q 0 32 4 32 L 28 32 Q 32 32 32 28 L 32 4 Q 32 0 28 0 M 11.65 11.7 Q 11.65 10.15 12.8 9.05 14 7.95 16 7.95 17.9 7.95 19.1 8.95 20.25 10 20.25 11.35 20.25 12.25 19.65 13.15 19 14.1 17 15.35 19.05 16.95 19.75 17.85 20.6 19.05 20.6 20.4 20.6 22.05 19.35 23.25 18.05 24.45 16 24.45 13.75 24.45 12.45 23 11.45 21.9 11.45 20.55 11.45 19.45 12.15 18.45 12.85 17.4 14.6 16.15 12.7 14.6 12.2 13.65 11.65 12.7 11.65 11.7 M 15.15 16.6 Q 14.2 17.4 13.7 18.4 13.25 19.35 13.25 20.45 13.25 22 14.1 22.9 14.9 23.8 16.2 23.8 17.45 23.8 18.2 23.1 18.95 22.35 18.95 21.35 18.95 20.5 18.5 19.85 17.7 18.6 15.15 16.6 M 18.6 11.25 Q 18.6 10 17.9 9.3 17.2 8.6 16 8.6 14.85 8.6 14.1 9.3 13.35 10 13.35 10.9 13.35 11.55 13.65 12.15 13.95 12.75 14.5 13.3 L 16.45 14.9 Q 17.85 13.65 18.25 12.9 18.6 12.15 18.6 11.25 Z"/>
</svg>
