
<svg xmlns="http://www.w3.org/2000/svg" version="1.1" xmlns:xlink="http://www.w3.org/1999/xlink" width="18px" height="27px" viewBox="0 0 14 21">
<defs>
<g id="Layer0_0_FILL">
<path fill="#EF5350" stroke="none" d="
M 14 7
Q 14 4.05 11.95 2 9.9 0 6.95 0 4.15 0 2.1 2 0 4.05 0 7 0 8.5 0.45 9.4
L 5.45 20
Q 5.65 20.45 6.05 20.75 6.5 20.95 6.95 20.95 7.5 20.95 7.9 20.75 8.35 20.45 8.6 20
L 13.55 9.4
Q 14 8.5 14 7
M 6.95 3.45
Q 8.45 3.45 9.5 4.55 10.5 5.5 10.5 7 10.5 8.45 9.5 9.4 8.45 10.5 6.95 10.5 5.6 10.5 4.55 9.4 3.55 8.45 3.55 7 3.55 5.5 4.55 4.55 5.6 3.45 6.95 3.45 Z"/>
</g>
</defs>

<g transform="matrix( 1, 0, 0, 1, 0,0) ">
<use xlink:href="#Layer0_0_FILL"/>
</g>
</svg>
